<?xml version="1.0" standalone="no"?>
<!DOCTYPE svg PUBLIC "-//W3C//DTD SVG 20010904//EN"
 "http://www.w3.org/TR/2001/REC-SVG-20010904/DTD/svg10.dtd">
<svg version="1.0" xmlns="http://www.w3.org/2000/svg"
 width="226.000000pt" height="223.000000pt" viewBox="0 0 226.000000 223.000000"
 preserveAspectRatio="xMidYMid meet">

<g transform="translate(0.000000,223.000000) scale(0.100000,-0.100000)"
fill="#000000" stroke="none">
<path d="M745 2206 c-129 -50 -265 -128 -265 -153 0 -28 33 -26 90 5 32 18 60
32 64 32 6 0 35 -55 59 -112 l16 -37 -59 -36 c-32 -19 -89 -64 -126 -99 -61
-56 -67 -65 -55 -80 20 -24 33 -20 76 25 50 51 181 137 260 171 56 24 150 49
238 63 40 6 58 28 38 48 -16 16 -150 -5 -243 -37 -40 -14 -73 -24 -74 -23 -6
6 -64 140 -64 147 0 7 65 35 123 54 21 7 22 42 1 50 -9 3 -16 6 -17 6 -1 -1
-29 -11 -62 -24z"/>
<path d="M1432 2200 c2 -18 16 -28 58 -44 86 -33 84 -28 42 -112 -27 -56 -40
-73 -52 -68 -113 48 -285 79 -300 54 -16 -26 2 -38 76 -50 97 -15 200 -50 283
-96 75 -41 186 -127 202 -155 12 -23 47 -25 56 -3 8 22 -81 110 -172 169 l-73
48 34 71 c19 39 39 72 44 74 5 2 37 -13 71 -33 62 -38 85 -38 77 1 -6 34 -231
151 -310 162 -37 5 -40 3 -36 -18z"/>
<path d="M1178 1808 c-8 -20 2 -38 21 -38 17 0 133 -28 138 -34 2 -2 -3 -16
-12 -32 -20 -38 -19 -46 6 -78 35 -45 119 -27 119 27 0 31 18 25 85 -29 63
-49 70 -53 84 -38 15 14 11 20 -41 69 -108 101 -381 205 -400 153z"/>
<path d="M351 1592 c-22 -37 -53 -101 -68 -142 -14 -41 -28 -76 -29 -78 -2 -4
-154 35 -160 40 -2 2 6 34 18 70 12 36 18 73 15 82 -11 28 -37 18 -54 -21 -25
-62 -61 -213 -64 -278 -4 -58 -3 -60 21 -60 23 0 25 5 32 60 11 89 6 85 95 66
l78 -17 -4 -131 c-4 -159 2 -195 32 -191 21 3 22 8 23 138 2 167 22 252 95
397 28 57 49 110 45 118 -11 31 -36 13 -75 -53z"/>
<path d="M1843 1653 c-20 -7 -16 -21 37 -128 72 -143 92 -228 94 -400 1 -131
2 -140 20 -140 30 0 39 53 33 197 l-5 128 37 9 c48 13 121 29 122 27 1 0 7
-35 13 -76 9 -65 14 -75 32 -78 12 -2 24 3 26 10 14 38 -44 320 -74 355 -14
17 -37 16 -44 -2 -3 -8 3 -43 15 -77 12 -34 18 -65 14 -68 -5 -4 -41 -14 -82
-23 -76 -18 -90 -15 -91 21 0 21 -49 133 -83 189 -32 54 -43 63 -64 56z"/>
<path d="M1116 1536 c5 -13 9 -14 14 -6 10 16 90 5 148 -20 40 -18 61 -39 25
-25 -13 4 -15 3 -7 -5 7 -7 19 -7 33 -2 21 7 17 11 -39 36 -34 16 -89 31 -121
33 -53 5 -59 4 -53 -11z"/>
<path d="M944 1515 c-60 -30 -125 -84 -155 -128 -13 -20 -6 -14 20 14 40 47
117 101 158 113 29 9 36 -23 9 -45 -18 -15 -18 -17 -3 -40 10 -13 17 -19 17
-13 0 5 -5 15 -11 21 -15 15 -3 33 23 33 17 0 18 3 8 15 -7 8 -10 24 -7 35 7
26 1 25 -59 -5z"/>
<path d="M1664 1507 c-3 -8 11 -47 31 -88 l35 -74 -30 -6 c-66 -14 -92 -77
-49 -120 21 -21 50 -22 92 -4 15 6 17 -1 17 -83 0 -69 3 -91 14 -95 31 -12 39
20 33 136 -4 83 -12 131 -30 184 -43 126 -95 195 -113 150z"/>
<path d="M1138 1503 c35 -5 40 -14 17 -33 -24 -20 -19 -44 8 -35 12 4 38 10
57 15 33 7 33 8 7 9 -16 0 -37 -4 -49 -10 -27 -15 -35 -3 -14 20 23 26 13 41
-27 39 l-32 -1 33 -4z"/>
<path d="M1104 1471 c5 -8 3 -17 -5 -22 -8 -5 -9 -9 -4 -9 6 0 16 4 23 9 10 6
9 11 -4 22 -14 11 -16 11 -10 0z"/>
<path d="M1265 1460 c-4 -6 3 -10 14 -10 25 0 27 6 6 13 -8 4 -17 2 -20 -3z"/>
<path d="M1025 1419 c-16 -10 -25 -19 -20 -19 6 0 21 7 34 16 21 15 24 15 39
-1 16 -17 16 -17 -6 -12 -12 3 -20 1 -16 -4 8 -13 44 -11 44 2 0 11 -29 39
-40 38 -3 0 -18 -9 -35 -20z"/>
<path d="M1370 1424 c-14 -8 -17 -13 -7 -10 11 4 17 0 18 -12 0 -13 3 -11 9 6
9 22 30 31 30 12 0 -5 5 -10 11 -10 8 0 8 5 -1 15 -16 19 -28 18 -60 -1z"/>
<path d="M980 1360 c-30 -21 -58 -36 -63 -33 -38 23 -96 1 -97 -36 -1 -9 -7
-2 -14 15 -14 32 -41 50 -51 34 -4 -6 3 -10 15 -10 15 0 22 -8 27 -31 3 -19
14 -34 28 -39 12 -5 32 -21 43 -37 l22 -28 -11 31 c-6 18 -19 34 -30 37 -22 6
-25 39 -5 56 16 13 66 7 76 -9 5 -8 9 -7 13 3 8 22 93 59 119 52 l23 -6 -23
14 c-12 7 -19 16 -16 20 14 14 -2 4 -56 -33z"/>
<path d="M1425 1387 c-11 -6 -40 -12 -64 -12 -28 -1 -49 -8 -56 -19 -7 -9 -17
-16 -24 -16 -6 0 -11 -7 -11 -15 0 -19 9 -19 34 0 28 21 62 19 79 -5 12 -18
16 -18 33 -5 20 15 69 21 60 7 -2 -4 -1 -14 5 -22 7 -13 9 -13 9 0 1 9 6 5 15
-10 24 -41 17 -13 -9 38 -32 63 -45 74 -71 59z m37 -45 c-9 -2 -27 -8 -39 -14
-18 -9 -27 -8 -41 5 -10 10 -32 17 -48 18 -29 0 -29 0 -5 10 13 5 32 7 42 4
10 -3 31 1 46 9 26 14 29 13 45 -7 16 -21 16 -22 0 -25z"/>
<path d="M1239 1272 c-26 -28 -47 -68 -29 -57 6 3 10 11 10 17 0 6 14 24 32
40 17 15 27 28 22 28 -5 0 -21 -13 -35 -28z"/>
<path d="M1306 1290 c12 -5 25 -13 29 -19 3 -6 11 -11 17 -11 6 0 1 9 -12 20
-13 11 -30 20 -39 19 -11 0 -9 -3 5 -9z"/>
<path d="M1435 1283 c16 -3 20 -12 21 -46 2 -61 23 -94 54 -87 14 3 26 14 28
25 4 20 3 20 -12 0 -30 -40 -74 24 -60 88 5 25 3 27 -23 26 -19 -1 -22 -3 -8
-6z"/>
<path d="M1397 1249 c20 -11 43 -61 43 -96 0 -7 9 -22 19 -32 18 -18 18 -19
-10 -40 -16 -12 -29 -29 -28 -39 0 -14 2 -14 6 -2 3 8 22 29 42 47 32 29 34
32 14 33 -22 0 -25 6 -49 103 -3 15 -10 27 -14 27 -5 0 -17 2 -27 5 -11 4 -9
1 4 -6z"/>
<path d="M1508 1242 c-14 -15 -15 -20 -2 -36 8 -11 14 -15 14 -10 0 6 -5 15
-12 22 -7 7 -8 12 -2 12 6 0 15 -5 21 -11 7 -7 9 -3 6 15 -3 14 -6 26 -7 25 0
0 -8 -8 -18 -17z"/>
<path d="M910 1185 c0 -8 -4 -15 -9 -15 -22 0 -22 -42 -1 -77 17 -29 21 -51
19 -98 -3 -86 0 -115 11 -115 6 0 10 9 10 20 0 23 29 55 59 65 12 3 21 13 21
21 0 8 9 14 20 14 11 0 23 8 27 18 3 9 15 28 27 41 12 13 15 21 9 17 -7 -4
-13 -2 -13 3 0 6 -16 17 -35 25 -21 9 -35 22 -35 33 -1 23 -42 53 -80 58 -21
3 -30 0 -30 -10z m81 -21 c10 -9 19 -23 19 -30 0 -8 18 -25 41 -40 38 -24 40
-27 25 -43 -9 -10 -16 -23 -16 -29 0 -7 -9 -12 -20 -12 -10 0 -24 -9 -30 -20
-6 -11 -17 -20 -25 -20 -8 0 -18 -6 -22 -14 -4 -8 -15 -16 -23 -18 -12 -2 -14
8 -11 58 2 47 -2 68 -19 97 -21 35 -21 37 -5 65 20 33 54 35 86 6z"/>
<path d="M1200 1197 c0 -27 23 -47 54 -47 46 0 54 -14 51 -90 -2 -44 0 -56 5
-38 11 39 6 103 -9 122 -7 9 -26 16 -42 16 -17 0 -34 8 -43 22 -9 12 -16 19
-16 15z"/>
<path d="M1376 975 c-21 -25 -42 -45 -47 -45 -5 0 -13 15 -18 33 l-9 32 1 -36
c3 -49 27 -48 77 3 33 34 49 58 38 58 -2 0 -20 -20 -42 -45z"/>
<path d="M1443 968 c-18 -24 -24 -38 -16 -38 11 1 46 50 35 50 -5 0 -14 -6
-19 -12z"/>
<path d="M484 935 c-4 -9 -4 -19 0 -22 3 -4 6 1 6 10 0 38 27 13 54 -48 16
-36 32 -68 37 -70 4 -3 -7 27 -26 67 -33 72 -59 95 -71 63z"/>
<path d="M1737 943 c-4 -3 -21 -37 -38 -75 -32 -68 -45 -81 -55 -54 -9 23 -58
36 -85 22 -54 -27 -55 -101 -1 -126 l27 -12 -40 -34 c-22 -19 -53 -42 -68 -52
-30 -18 -34 -55 -6 -60 22 -4 126 78 182 146 55 66 132 213 124 236 -7 16 -28
21 -40 9z"/>
<path d="M277 903 c-16 -15 -4 -61 37 -150 25 -51 55 -107 67 -124 12 -17 18
-34 13 -38 -31 -28 -117 -91 -124 -91 -4 0 -25 27 -46 60 -29 45 -44 60 -59
58 -33 -5 -28 -30 24 -109 69 -105 172 -215 194 -206 29 11 19 41 -28 87 -25
24 -45 47 -45 50 0 4 28 29 63 57 l63 50 64 -60 c83 -76 177 -140 196 -133 27
10 15 43 -28 71 -150 99 -274 254 -334 420 -21 58 -39 77 -57 58z"/>
<path d="M490 895 c0 -5 5 -17 10 -25 5 -8 10 -10 10 -5 0 6 -5 17 -10 25 -5
8 -10 11 -10 5z"/>
<path d="M1934 863 c-63 -158 -168 -304 -278 -388 -117 -88 -120 -91 -113
-108 4 -10 13 -17 21 -17 22 0 128 75 190 135 32 30 61 55 66 55 4 0 35 -22
70 -50 l62 -49 -52 -55 c-53 -56 -60 -86 -21 -86 39 0 231 240 231 289 0 41
-38 24 -76 -34 -20 -30 -41 -55 -46 -55 -11 0 -128 90 -128 98 0 3 13 26 29
51 46 71 93 178 95 213 2 50 -30 50 -50 1z"/>
<path d="M624 818 c-19 -23 -19 -23 1 -6 11 9 34 18 50 21 l30 4 -31 2 c-21 1
-37 -6 -50 -21z"/>
<path d="M1256 818 c-26 -13 -33 -22 -29 -38 6 -21 37 -27 49 -9 4 7 0 9 -14
5 -12 -4 -22 -1 -25 7 -7 18 49 44 86 39 36 -4 34 -20 -5 -37 -18 -8 -27 -14
-20 -15 7 0 27 7 44 16 28 14 29 17 15 32 -22 21 -60 21 -101 0z"/>
<path d="M731 773 c0 -20 -9 -37 -23 -47 -12 -9 -18 -16 -12 -16 22 0 46 38
41 67 -4 28 -4 28 -6 -4z"/>
<path d="M550 771 c5 -11 15 -23 21 -27 6 -3 3 5 -6 20 -20 30 -30 35 -15 7z"/>
<path d="M966 771 c-28 -11 74 -41 138 -40 46 1 48 2 21 10 -16 5 -34 14 -40
21 -5 7 -23 14 -40 15 -25 1 -26 0 -10 -7 11 -5 29 -11 39 -14 32 -11 9 -18
-33 -11 -22 4 -39 11 -38 17 3 14 -14 18 -37 9z"/>
<path d="M608 693 c16 -21 40 -47 53 -58 13 -11 1 6 -26 38 -55 64 -73 77 -27
20z"/>
<path d="M700 665 c19 -19 36 -35 39 -35 3 0 -10 16 -29 35 -19 19 -36 35 -39
35 -3 0 10 -16 29 -35z"/>
<path d="M775 605 c29 -25 29 -26 11 -40 -16 -12 -17 -15 -4 -15 13 0 28 19
28 35 0 2 -15 13 -32 25 l-33 22 30 -27z"/>
<path d="M1105 620 c-35 -13 -48 -37 -42 -75 7 -41 1 -43 -83 -20 -80 21 -102
20 -98 -7 4 -27 50 -44 164 -59 85 -11 191 -3 275 21 45 13 67 36 51 52 -9 9
-29 7 -81 -5 -97 -24 -101 -23 -94 16 8 53 -43 97 -92 77z"/>
<path d="M705 600 c10 -11 20 -20 23 -20 3 0 -3 9 -13 20 -10 11 -20 20 -23
20 -3 0 3 -9 13 -20z"/>
<path d="M789 334 c-12 -14 -10 -19 9 -34 22 -18 159 -53 255 -65 l47 -6 0
-85 0 -84 -82 2 c-72 3 -83 1 -86 -14 -6 -30 44 -40 188 -41 165 -1 202 6 198
36 -3 21 -8 22 -80 20 l-78 -3 0 85 0 84 33 5 c137 21 170 28 218 44 52 18 73
42 52 62 -4 5 -46 -3 -93 -17 -75 -23 -103 -26 -235 -27 -145 -1 -217 10 -316
49 -9 3 -22 -1 -30 -11z"/>
</g>
</svg>
